{"title":"Miley.Cyrus.Can't.Be.Tamed.HD ~ cHowZ","uid":5668138,"size":176474300,"categoryP":"video","categoryS":"music_videos","magnet":"?xt=urn:btih:f46c88ba620854145ad2bbc7d0841e7d4c91d2e7&amp;dn=Miley.Cyrus.Can%5C%27t.Be.Tamed.HD+%7E+cHowZ&amp;tr=udp%3A%2F%2Ftracker.openbittorrent.com%3A80&amp;tr=udp%3A%2F%2Fopen.demonii.com%3A1337&amp;tr=udp%3A%2F%2Ftracker.coppersurfer.tk%3A6969&amp;tr=udp%3A%2F%2Fexodus.desync.com%3A6969","seeders":1,"leechers":0,"uploader":"vikkk.","files":1,"time":1278225804,"description":"General:\n\nComplete name                    : Miley Cyrus - Can't Be Tamed [HD] ~ cHowZ.avi\nFormat                           : AVI\nFormat/Info                      : Audio Video Interleave\nFile size                        : 168 MiB\nDuration                         : 3mn 47s\nOverall bit rate                 : 6 216 Kbps\nWriting application              : Lavf52.39.1\n\nVideo:\n\nFormat                           : xvid\nCodec ID                         : xvid\nDuration                         : 3mn 47s\nBit rate                         : 5 980 Kbps\nWidth                            : 1 280 pixels\nHeight                           : 720 pixels\nDisplay aspect ratio             : 16:9\nFrame rate                       : 24.000 fps\nBits/(Pixel*Frame)               : 0.270\nStream size                      : 162 MiB (96%)\n\nAudio:\n\nID                               : 1\nFormat                           : MPEG Audio\nFormat version                   : Version 1\nFormat profile                   : Layer 3\nFormat_Settings_Mode             : Joint stereo\nFormat_Settings_ModeExtension    : MS Stereo\nCodec ID                         : 55\nCodec ID/Hint                    : MP3\nDuration                         : 3mn 47s\nBit rate mode                    : Constant\nBit rate                         : 224 Kbps\nChannel(s)                       : 2 channels\nSampling rate                    : 48.0 KHz\nStream size                      : 6.06 MiB (4%)\nAlignment                        : Aligned on interleaves\nInterleave, duration             : 24 ms (0.58 video frame)\nWriting library                  : LAME3.96.1\n\nScreenshots: &lt;a href=&quot;\nhttp://img443.imageshack.us/img443/384/tbetamedscreens.jpg&quot; rel=&quot;nofollow&quot; target=&quot;_NEW&quot;&gt;\nhttp://img443.imageshack.us/img443/384/tbetamedscreens.jpg&lt;/a&gt;\n\n\n~~~~~~~~PLEASE CONTINUE SEEDING AFTER DOWNLOADING IS COMPLETE~~~~~~~~","torrent":{"xt":"urn:btih:f46c88ba620854145ad2bbc7d0841e7d4c91d2e7","amp;dn":"Miley.Cyrus.Can%5C%27t.Be.Tamed.HD+%7E+cHowZ","amp;tr":["udp%3A%2F%2Ftracker.openbittorrent.com%3A80","udp%3A%2F%2Fopen.demonii.com%3A1337","udp%3A%2F%2Ftracker.coppersurfer.tk%3A6969","udp%3A%2F%2Fexodus.desync.com%3A6969"],"infoHash":"f46c88ba620854145ad2bbc7d0841e7d4c91d2e7","infoHashBuffer":{"type":"Buffer","data":[244,108,136,186,98,8,84,20,90,210,187,199,208,132,30,125,76,145,210,231]},"announce":[],"urlList":[]}}